<svg width="179" height="32" viewBox="0 0 179 32" fill="none" xmlns="http://www.w3.org/2000/svg">
<path d="M61.9332 25C61.6108 25 61.3453 24.8957 61.1367 24.6871C60.9281 24.4785 60.8238 24.213 60.8238 23.8907V3.89422C60.8238 3.57185 60.9281 3.30637 61.1367 3.09777C61.3453 2.88918 61.6108 2.78489 61.9332 2.78489H67.2523C68.6366 2.78489 69.8692 3.07881 70.9501 3.66666C72.031 4.23555 72.8748 5.04148 73.4816 6.08444C74.1074 7.10844 74.4203 8.29363 74.4203 9.64C74.4203 10.9295 74.1074 12.0767 73.4816 13.0818C72.8748 14.0868 72.031 14.8738 70.9501 15.4427C69.8692 16.0116 68.6366 16.296 67.2523 16.296H63.0425V23.8907C63.0425 24.213 62.9382 24.4785 62.7296 24.6871C62.521 24.8957 62.2555 25 61.9332 25ZM73.823 25C73.5764 25 73.3773 24.9526 73.2256 24.8578C73.0929 24.763 72.9696 24.6207 72.8558 24.4311L67.3945 15.7271L69.6132 15.1582L74.7047 23.2933C74.9892 23.7484 75.0366 24.1467 74.847 24.488C74.6763 24.8293 74.335 25 73.823 25ZM63.0425 14.1627H67.2523C68.2194 14.1627 69.0727 13.973 69.8123 13.5938C70.5708 13.1956 71.1681 12.6551 71.6043 11.9724C72.0404 11.2898 72.2585 10.5123 72.2585 9.64C72.2585 8.71081 72.0404 7.8954 71.6043 7.19378C71.1681 6.47318 70.5708 5.91378 69.8123 5.51555C69.0727 5.11733 68.2194 4.91822 67.2523 4.91822H63.0425V14.1627ZM84.5512 25.1422C83.091 25.1422 81.7826 24.8009 80.6258 24.1182C79.4691 23.4166 78.5494 22.4684 77.8667 21.2738C77.203 20.0791 76.8712 18.7327 76.8712 17.2347C76.8712 15.7176 77.2125 14.3618 77.8952 13.1671C78.5968 11.9724 79.545 11.0338 80.7396 10.3511C81.9343 9.64948 83.2807 9.29866 84.7787 9.29866C86.2768 9.29866 87.6137 9.64948 88.7894 10.3511C89.9841 11.0338 90.9227 11.9724 91.6054 13.1671C92.307 14.3618 92.6673 15.7176 92.6863 17.2347L91.8045 17.9173C91.8045 19.2827 91.4821 20.5153 90.8374 21.6151C90.2116 22.696 89.3488 23.5588 88.249 24.2036C87.1681 24.8293 85.9355 25.1422 84.5512 25.1422ZM84.7787 23.1511C85.8786 23.1511 86.8552 22.8951 87.7085 22.3831C88.5808 21.8711 89.2635 21.1695 89.7565 20.2782C90.2685 19.368 90.5245 18.3535 90.5245 17.2347C90.5245 16.0969 90.2685 15.0824 89.7565 14.1911C89.2635 13.2999 88.5808 12.5982 87.7085 12.0862C86.8552 11.5553 85.8786 11.2898 84.7787 11.2898C83.6978 11.2898 82.7213 11.5553 81.849 12.0862C80.9767 12.5982 80.2845 13.2999 79.7725 14.1911C79.2605 15.0824 79.0045 16.0969 79.0045 17.2347C79.0045 18.3535 79.2605 19.368 79.7725 20.2782C80.2845 21.1695 80.9767 21.8711 81.849 22.3831C82.7213 22.8951 83.6978 23.1511 84.7787 23.1511ZM91.577 25C91.2546 25 90.9891 24.9052 90.7805 24.7156C90.5719 24.507 90.4676 24.2415 90.4676 23.9191V19.0551L91.0081 16.808L92.6863 17.2347V23.9191C92.6863 24.2415 92.582 24.507 92.3734 24.7156C92.1648 24.9052 91.8993 25 91.577 25ZM98.0838 25C97.7425 25 97.4675 24.9052 97.259 24.7156C97.0693 24.507 96.9745 24.232 96.9745 23.8907V10.5502C96.9745 10.2089 97.0693 9.94341 97.259 9.75378C97.4675 9.54518 97.7425 9.44089 98.0838 9.44089C98.4062 9.44089 98.6622 9.54518 98.8518 9.75378C99.0604 9.94341 99.1647 10.2089 99.1647 10.5502V23.8907C99.1647 24.232 99.0604 24.507 98.8518 24.7156C98.6622 24.9052 98.4062 25 98.0838 25ZM98.0554 6.48266C97.6382 6.48266 97.2779 6.33096 96.9745 6.02755C96.6711 5.72415 96.5194 5.35437 96.5194 4.91822C96.5194 4.44415 96.6711 4.07437 96.9745 3.80889C97.2969 3.52444 97.6667 3.38222 98.0838 3.38222C98.4821 3.38222 98.8329 3.52444 99.1363 3.80889C99.4587 4.07437 99.6198 4.44415 99.6198 4.91822C99.6198 5.35437 99.4681 5.72415 99.1647 6.02755C98.8613 6.33096 98.4915 6.48266 98.0554 6.48266ZM105.709 25C105.386 25 105.121 24.8957 104.912 24.6871C104.704 24.4785 104.599 24.213 104.599 23.8907V3.89422C104.599 3.57185 104.704 3.30637 104.912 3.09777C105.121 2.88918 105.386 2.78489 105.709 2.78489H111.028C112.412 2.78489 113.645 3.07881 114.726 3.66666C115.807 4.23555 116.65 5.04148 117.257 6.08444C117.883 7.10844 118.196 8.29363 118.196 9.64C118.196 10.9295 117.883 12.0767 117.257 13.0818C116.65 14.0868 115.807 14.8738 114.726 15.4427C113.645 16.0116 112.412 16.296 111.028 16.296H106.818V23.8907C106.818 24.213 106.714 24.4785 106.505 24.6871C106.297 24.8957 106.031 25 105.709 25ZM117.599 25C117.352 25 117.153 24.9526 117.001 24.8578C116.868 24.763 116.745 24.6207 116.631 24.4311L111.17 15.7271L113.389 15.1582L118.48 23.2933C118.765 23.7484 118.812 24.1467 118.623 24.488C118.452 24.8293 118.111 25 117.599 25ZM106.818 14.1627H111.028C111.995 14.1627 112.848 13.973 113.588 13.5938C114.346 13.1956 114.944 12.6551 115.38 11.9724C115.816 11.2898 116.034 10.5123 116.034 9.64C116.034 8.71081 115.816 7.8954 115.38 7.19378C114.944 6.47318 114.346 5.91378 113.588 5.51555C112.848 5.11733 111.995 4.91822 111.028 4.91822H106.818V14.1627ZM128.327 25.1422C126.867 25.1422 125.558 24.8009 124.401 24.1182C123.245 23.4166 122.325 22.4684 121.642 21.2738C120.979 20.0791 120.647 18.7327 120.647 17.2347C120.647 15.7176 120.988 14.3618 121.671 13.1671C122.372 11.9724 123.321 11.0338 124.515 10.3511C125.71 9.64948 127.056 9.29866 128.554 9.29866C130.052 9.29866 131.389 9.64948 132.565 10.3511C133.76 11.0338 134.698 11.9724 135.381 13.1671C136.083 14.3618 136.443 15.7176 136.462 17.2347L135.58 17.9173C135.58 19.2827 135.258 20.5153 134.613 21.6151C133.987 22.696 133.124 23.5588 132.025 24.2036C130.944 24.8293 129.711 25.1422 128.327 25.1422ZM128.554 23.1511C129.654 23.1511 130.631 22.8951 131.484 22.3831C132.356 21.8711 133.039 21.1695 133.532 20.2782C134.044 19.368 134.3 18.3535 134.3 17.2347C134.3 16.0969 134.044 15.0824 133.532 14.1911C133.039 13.2999 132.356 12.5982 131.484 12.0862C130.631 11.5553 129.654 11.2898 128.554 11.2898C127.473 11.2898 126.497 11.5553 125.625 12.0862C124.752 12.5982 124.06 13.2999 123.548 14.1911C123.036 15.0824 122.78 16.0969 122.78 17.2347C122.78 18.3535 123.036 19.368 123.548 20.2782C124.06 21.1695 124.752 21.8711 125.625 22.3831C126.497 22.8951 127.473 23.1511 128.554 23.1511ZM135.353 25C135.03 25 134.765 24.9052 134.556 24.7156C134.347 24.507 134.243 24.2415 134.243 23.9191V19.0551L134.784 16.808L136.462 17.2347V23.9191C136.462 24.2415 136.358 24.507 136.149 24.7156C135.94 24.9052 135.675 25 135.353 25ZM142.087 19.7947L140.75 18.344L150.478 9.55466C150.706 9.34607 150.943 9.25126 151.189 9.27022C151.436 9.27022 151.663 9.384 151.872 9.61155C152.08 9.83911 152.175 10.0856 152.156 10.3511C152.156 10.5976 152.043 10.8157 151.815 11.0053L142.087 19.7947ZM141.376 25C141.053 25 140.788 24.9052 140.579 24.7156C140.39 24.507 140.295 24.2415 140.295 23.9191V3.86578C140.295 3.5434 140.39 3.2874 140.579 3.09777C140.788 2.88918 141.053 2.78489 141.376 2.78489C141.698 2.78489 141.954 2.88918 142.144 3.09777C142.352 3.2874 142.457 3.5434 142.457 3.86578V23.9191C142.457 24.2415 142.352 24.507 142.144 24.7156C141.954 24.9052 141.698 25 141.376 25ZM151.9 24.8578C151.654 25.0664 151.398 25.1517 151.132 25.1138C150.867 25.0948 150.639 24.9621 150.45 24.7156L144.107 16.9218L145.643 15.5564L152.043 23.4356C152.232 23.6631 152.317 23.9096 152.299 24.1751C152.28 24.4216 152.147 24.6492 151.9 24.8578ZM161.585 25.1422C160.124 25.1422 158.816 24.8009 157.659 24.1182C156.502 23.4166 155.583 22.4684 154.9 21.2738C154.236 20.0791 153.905 18.7327 153.905 17.2347C153.905 15.7176 154.246 14.3618 154.929 13.1671C155.63 11.9724 156.578 11.0338 157.773 10.3511C158.968 9.64948 160.314 9.29866 161.812 9.29866C163.31 9.29866 164.647 9.64948 165.823 10.3511C167.017 11.0338 167.956 11.9724 168.639 13.1671C169.34 14.3618 169.701 15.7176 169.72 17.2347L168.838 17.9173C168.838 19.2827 168.515 20.5153 167.871 21.6151C167.245 22.696 166.382 23.5588 165.282 24.2036C164.201 24.8293 162.969 25.1422 161.585 25.1422ZM161.812 23.1511C162.912 23.1511 163.889 22.8951 164.742 22.3831C165.614 21.8711 166.297 21.1695 166.79 20.2782C167.302 19.368 167.558 18.3535 167.558 17.2347C167.558 16.0969 167.302 15.0824 166.79 14.1911C166.297 13.2999 165.614 12.5982 164.742 12.0862C163.889 11.5553 162.912 11.2898 161.812 11.2898C160.731 11.2898 159.755 11.5553 158.882 12.0862C158.01 12.5982 157.318 13.2999 156.806 14.1911C156.294 15.0824 156.038 16.0969 156.038 17.2347C156.038 18.3535 156.294 19.368 156.806 20.2782C157.318 21.1695 158.01 21.8711 158.882 22.3831C159.755 22.8951 160.731 23.1511 161.812 23.1511ZM168.61 25C168.288 25 168.022 24.9052 167.814 24.7156C167.605 24.507 167.501 24.2415 167.501 23.9191V19.0551L168.041 16.808L169.72 17.2347V23.9191C169.72 24.2415 169.615 24.507 169.407 24.7156C169.198 24.9052 168.933 25 168.61 25Z" fill="black"/>
<path fill-rule="evenodd" clip-rule="evenodd" d="M23.2359 2.96289H8.58307e-06L9.78354 9.63504H33.0194L23.2359 2.96289ZM9.78353 9.63505V25.4814L0 18.8093V2.96289L9.78353 9.63505Z" fill="#CCCCCC"/>
<path fill-rule="evenodd" clip-rule="evenodd" d="M9.78363 25.4814L33.0195 25.4814L23.236 18.8093L9.91821e-05 18.8093L9.78363 25.4814ZM23.236 18.8093L23.236 2.96292L33.0195 9.63508V25.4814L23.236 18.8093Z" fill="black"/>
</svg>
